<svg width="33" height="22" viewBox="0 0 33 22" fill="none" xmlns="http://www.w3.org/2000/svg">
<path d="M25.418 21.7188C25.7695 22.082 26.332 22.1055 26.6953 21.7188C27.0703 21.332 27.0469 20.8047 26.6953 20.4414L7.10156 0.859375C6.75 0.507812 6.16406 0.507812 5.8125 0.859375C5.47266 1.19922 5.47266 1.79688 5.8125 2.13672L25.418 21.7188ZM16.3125 1.52734C14.2734 1.52734 12.4219 1.87891 10.6992 2.45312L12.2461 3.98828C13.5352 3.60156 14.8594 3.37891 16.3125 3.37891C24.0234 3.37891 30.2695 10.1758 30.2695 11.5703C30.2695 12.5195 28.2188 15.0742 24.9727 17.0664L26.4141 18.5078C30.1172 16.1055 32.3203 12.9531 32.3203 11.5703C32.3203 9.16797 25.7812 1.52734 16.3125 1.52734ZM16.3125 21.6133C18.4922 21.6133 20.4844 21.2266 22.3008 20.6055L20.7656 19.0703C19.3711 19.5039 17.8945 19.7617 16.3125 19.7617C8.58984 19.7617 2.34375 13.2227 2.34375 11.5703C2.34375 10.75 4.51172 8.01953 7.96875 5.94531L6.51562 4.49219C2.61328 6.90625 0.292969 10.1523 0.292969 11.5703C0.292969 13.9609 6.96094 21.6133 16.3125 21.6133ZM22.3242 14.1367C22.6875 13.3516 22.8867 12.4727 22.8867 11.5703C22.8867 7.90234 19.957 5.00781 16.3125 5.00781C15.3867 5.00781 14.5195 5.20703 13.7344 5.54688L22.3242 14.1367ZM16.3125 18.1328C17.3438 18.1328 18.3164 17.875 19.1836 17.4531L10.3945 8.66406C9.96094 9.53125 9.71484 10.5156 9.71484 11.5703C9.72656 15.1445 12.6445 18.1328 16.3125 18.1328Z" fill="#212121"/>
</svg>
